<?xml version="1.0" encoding="utf-8"?>
<!-- Generator: Adobe Illustrator 17.0.0, SVG Export Plug-In . SVG Version: 6.00 Build 0)  -->
<!DOCTYPE svg PUBLIC "-//W3C//DTD SVG 1.1//EN" "http://www.w3.org/Graphics/SVG/1.1/DTD/svg11.dtd">
<svg version="1.1" id="Layer_1" xmlns="http://www.w3.org/2000/svg" xmlns:xlink="http://www.w3.org/1999/xlink" x="0px" y="0px"
	 width="500px" height="500px" viewBox="0 0 500 500" enable-background="new 0 0 500 500" xml:space="preserve">
<g>
	<g>
		<path fill="#666666" d="M0,229.225c10.294-0.326,18.645-2.304,25.071-5.918c8.272-4.769,14.553-11.347,18.867-19.731
			c4.295-8.385,6.871-20.222,7.72-35.511c0.336-7.563,0.631-24.909,0.883-52.034C52.8,88.9,54.624,69.507,58.017,57.834
			c3.393-11.674,8.651-20.968,15.776-27.872c7.123-6.903,16.202-11.913,27.224-15.038c6.618-1.813,17.22-2.711,31.81-2.711h16.617
			v38.717h-10.216c-17.725,0-29.414,3.16-35.07,9.492c-5.656,6.327-8.477,20.099-8.477,41.306c0,38.302-0.601,62.722-1.78,73.241
			c-2.208,20.221-7.171,35.719-14.891,46.488c-7.72,10.764-19.891,20.012-36.514,27.744c18.658,7.72,32.188,19.358,40.588,34.891
			c8.399,15.546,12.598,40.98,12.598,76.337c0,31.581,0.338,50.239,1.012,55.976c1.01,8.887,3.122,15.72,6.328,20.479
			c2.365,3.289,6.119,5.878,11.263,7.767c5.15,1.889,18.452,2.939,35.16,2.939v38.693l-16.575-0.093
			c-16.919,0-29.27-1.377-37.055-4.175c-11.336-4.105-20.427-10.729-27.279-19.848c-6.853-9.12-11.299-21.342-13.326-36.619
			c-1.523-10.868-2.365-31.09-2.533-60.687c-0.175-30.25-1.907-50.722-5.217-61.41c-3.308-10.688-8.952-18.95-16.924-24.781
			c-7.972-5.836-18.151-8.914-30.533-9.253V229.225z"/>
	</g>
	<g>
		<path fill="#666666" d="M499.663,227.388l0.553,40.198c-10.349,0.297-18.729,2.303-25.107,6.001
			c-8.254,4.875-14.488,11.539-18.699,19.976c-4.212,8.449-6.618,20.315-7.244,35.614c-0.24,7.557-0.288,24.957-0.169,52.175
			c0.121,27.218-1.419,46.623-4.644,58.262c-3.249,11.638-8.375,20.991-15.402,28.08c-7.027,7.067-16.028,12.176-27.027,15.277
			c-6.57,1.889-17.159,2.939-31.767,3.126l-23.302,1.481l0.764-38.822l15.607-1.283c17.713-0.233,29.36-3.522,34.943-9.842
			c5.56-6.298,8.183-20.082,7.895-41.306c-0.554-39.253-0.217-64.279,0.986-74.978c2.095-19.918,7.269-35.527,15.523-46.822
			c8.231-11.288,19.783-20.151,34.607-26.601c-19.975-8.944-33.958-20.886-41.972-35.825c-8.013-14.938-12.272-39.755-12.754-74.436
			c-0.505-36.337-1.565-57.608-3.177-63.836c-1.974-8.355-5.632-14.314-11.023-17.86c-5.341-3.544-15.546-5.224-30.563-5.032
			l-10.283-0.011l-0.553-38.711l16.636-0.064c16.918-0.227,29.288,1.09,37.134,3.948c11.383,3.795,20.551,10.255,27.555,19.375
			c6.979,9.108,11.575,21.219,13.837,36.314c1.661,10.835,2.792,31.038,3.37,60.629c0.601,30.244,2.623,50.722,6.088,61.457
			c3.49,10.71,9.266,18.944,17.352,24.664C476.915,224.269,487.196,227.225,499.663,227.388z"/>
	</g>
	<path fill="#40D59F" d="M359.912,108.357c-2.479-2.134-6.282-3.142-11.384-3.008c-5.101,0.14-10.011,0.198-14.68,0.198
		c-2.503,0-5.391-0.059-8.711-0.198c-3.297-0.134-6.618-0.134-9.921,0c-3.321,0.14-6.282,0.472-8.916,1.003
		c-2.623,0.542-4.345,1.475-5.163,2.81c-1.949,2.14-2.828,5.884-2.695,11.23c0.144,5.353,0.217,10.03,0.217,14.041v52.157
		c0,3.75,0.144,8.018,0.409,12.834c0.265,4.816-0.265,8.426-1.661,10.839c-1.925,3.196-5.512,4.875-10.757,5.004
		c-5.247,0.14-10.349,0.204-15.306,0.204h-11.817c-0.217,17.521,0.476,35.026,0.234,52.547h27.298c5.245,0,8.832,1.883,10.757,5.621
		c0.277,0.793,0.409,1.597,0.409,2.407c0,0.805,0.144,1.61,0.434,2.403v4.011c0.264,1.074,0.336,2.14,0.205,3.213
		c-0.145,1.072-0.205,2.14-0.205,3.212v69.807c0,2.17-0.073,4.618-0.217,7.441c-0.133,2.798-0.133,5.597,0,8.419
		c0.144,2.799,0.421,5.481,0.842,8.001c0.409,2.565,1.024,4.361,1.853,5.433c0.818,1.33,2.539,2.192,5.163,2.613
		c2.634,0.396,5.523,0.676,8.699,0.793c3.183,0.14,6.359,0.14,9.537,0c3.177-0.117,5.992-0.186,8.471-0.186
		c4.692,0,9.722,0.069,15.113,0.186c5.367,0.14,9.314-0.863,11.793-3.009c1.925-1.329,2.887-3.732,2.887-7.229V114.975
		C362.799,111.909,361.837,109.698,359.912,108.357z"/>
	<g>
		<path fill="#666666" d="M242.347,53.974c13.779,0,28.2,7.643,28.2,20.827c0,10.987-10.896,19.585-18.907,27.419
			c-0.108,0,22.432,0,22.432,0v17.961h-52.769V102.22c7.051-4.204,21.471-10.413,21.471-20.158c0-5.159-3.845-7.548-9.187-7.548
			c-4.166,0-7.051,1.337-10.148,2.866c0,0.191,0-19.776,0-19.776C229.1,55.024,235.723,53.974,242.347,53.974z"/>
	</g>
	<path fill="#40D59F" d="M136.099,108.357c2.479-2.134,6.282-3.142,11.383-3.008c5.102,0.14,10.011,0.198,14.68,0.198
		c2.504,0,5.391-0.059,8.713-0.198c3.296-0.134,6.618-0.134,9.92,0c3.322,0.14,6.282,0.472,8.917,1.003
		c2.623,0.542,4.343,1.475,5.162,2.81c1.949,2.14,2.828,5.884,2.696,11.23c-0.145,5.353-0.217,10.03-0.217,14.041v52.157
		c0,3.75-0.144,8.018-0.409,12.834c-0.265,4.816,0.265,8.426,1.66,10.839c1.926,3.196,5.512,4.875,10.758,5.004
		c5.247,0.14,10.348,0.204,15.306,0.204h11.817c0.216,17.521,0.481,35.026,0.722,52.547h-28.254c-5.247,0-8.832,1.883-10.758,5.621
		c-0.276,0.793-0.409,1.597-0.409,2.407c0,0.805-0.144,1.61-0.432,2.403v4.011c-0.265,1.074-0.338,2.14-0.205,3.213
		c0.144,1.072,0.205,2.14,0.205,3.212v69.807c0,2.17,0.071,4.618,0.217,7.441c0.132,2.798,0.132,5.597,0,8.419
		c-0.145,2.799-0.421,5.481-0.843,8.001c-0.409,2.565-1.023,4.361-1.853,5.433c-0.818,1.33-2.538,2.192-5.162,2.613
		c-2.636,0.396-5.524,0.676-8.7,0.793c-3.183,0.14-6.359,0.14-9.536,0c-3.177-0.117-5.992-0.186-8.471-0.186
		c-4.693,0-9.723,0.069-15.114,0.186c-5.366,0.14-9.313-0.863-11.792-3.009c-1.926-1.329-2.888-3.732-2.888-7.229V114.975
		C133.211,111.909,134.173,109.698,136.099,108.357z"/>
</g>
</svg>
